<mxfile host="app.diagrams.net" modified="2024-05-22T16:35:44.695Z" agent="Mozilla/5.0 (Windows NT 10.0; Win64; x64) AppleWebKit/537.36 (KHTML, like Gecko) Chrome/124.0.0.0 Safari/537.36" etag="CZDt-8ZdC5N0QZO2EpTi" version="24.4.6" type="device">
  <diagram id="R2lEEEUBdFMjLlhIrx00" name="Page-1">
    <mxGraphModel dx="2899" dy="2269" grid="1" gridSize="10" guides="1" tooltips="1" connect="1" arrows="1" fold="1" page="1" pageScale="1" pageWidth="850" pageHeight="1100" math="0" shadow="0" extFonts="Permanent Marker^https://fonts.googleapis.com/css?family=Permanent+Marker">
      <root>
        <mxCell id="0" />
        <mxCell id="1" parent="0" />
        <mxCell id="hpJ25cg99E9ZZXq1IkF3-1" value="Profile" style="rounded=0;whiteSpace=wrap;html=1;" parent="1" vertex="1">
          <mxGeometry x="80" y="520" width="120" height="60" as="geometry" />
        </mxCell>
        <mxCell id="hpJ25cg99E9ZZXq1IkF3-52" style="edgeStyle=none;rounded=0;orthogonalLoop=1;jettySize=auto;html=1;entryX=1;entryY=0.5;entryDx=0;entryDy=0;endArrow=none;endFill=0;exitX=0;exitY=0.25;exitDx=0;exitDy=0;" parent="1" source="hpJ25cg99E9ZZXq1IkF3-2" target="hpJ25cg99E9ZZXq1IkF3-50" edge="1">
          <mxGeometry relative="1" as="geometry">
            <Array as="points">
              <mxPoint x="870" y="470" />
            </Array>
          </mxGeometry>
        </mxCell>
        <mxCell id="hpJ25cg99E9ZZXq1IkF3-54" value="1" style="edgeLabel;html=1;align=center;verticalAlign=middle;resizable=0;points=[];" parent="hpJ25cg99E9ZZXq1IkF3-52" vertex="1" connectable="0">
          <mxGeometry x="-0.5825" y="1" relative="1" as="geometry">
            <mxPoint as="offset" />
          </mxGeometry>
        </mxCell>
        <mxCell id="hpJ25cg99E9ZZXq1IkF3-2" value="User" style="rounded=0;whiteSpace=wrap;html=1;" parent="1" vertex="1">
          <mxGeometry x="1040" y="550" width="120" height="60" as="geometry" />
        </mxCell>
        <mxCell id="hpJ25cg99E9ZZXq1IkF3-32" style="edgeStyle=none;rounded=0;orthogonalLoop=1;jettySize=auto;html=1;entryX=0.75;entryY=1;entryDx=0;entryDy=0;endArrow=none;endFill=0;" parent="1" source="hpJ25cg99E9ZZXq1IkF3-3" target="hpJ25cg99E9ZZXq1IkF3-1" edge="1">
          <mxGeometry relative="1" as="geometry" />
        </mxCell>
        <mxCell id="hpJ25cg99E9ZZXq1IkF3-3" value="&lt;b&gt;&lt;u&gt;ID&lt;/u&gt;&lt;/b&gt;" style="ellipse;whiteSpace=wrap;html=1;" parent="1" vertex="1">
          <mxGeometry x="320" y="860" width="120" height="80" as="geometry" />
        </mxCell>
        <mxCell id="hpJ25cg99E9ZZXq1IkF3-47" style="edgeStyle=none;rounded=0;orthogonalLoop=1;jettySize=auto;html=1;entryX=0.75;entryY=1;entryDx=0;entryDy=0;endArrow=none;endFill=0;" parent="1" source="hpJ25cg99E9ZZXq1IkF3-4" target="hpJ25cg99E9ZZXq1IkF3-2" edge="1">
          <mxGeometry relative="1" as="geometry" />
        </mxCell>
        <mxCell id="hpJ25cg99E9ZZXq1IkF3-4" value="FirstName" style="ellipse;whiteSpace=wrap;html=1;" parent="1" vertex="1">
          <mxGeometry x="1140" y="680" width="120" height="80" as="geometry" />
        </mxCell>
        <mxCell id="hpJ25cg99E9ZZXq1IkF3-42" style="edgeStyle=none;rounded=0;orthogonalLoop=1;jettySize=auto;html=1;entryX=0;entryY=0.25;entryDx=0;entryDy=0;endArrow=none;endFill=0;" parent="1" source="hpJ25cg99E9ZZXq1IkF3-5" target="hpJ25cg99E9ZZXq1IkF3-1" edge="1">
          <mxGeometry relative="1" as="geometry" />
        </mxCell>
        <mxCell id="hpJ25cg99E9ZZXq1IkF3-5" value="Ethinicity" style="ellipse;whiteSpace=wrap;html=1;" parent="1" vertex="1">
          <mxGeometry x="-360" y="300" width="120" height="80" as="geometry" />
        </mxCell>
        <mxCell id="hpJ25cg99E9ZZXq1IkF3-49" style="edgeStyle=none;rounded=0;orthogonalLoop=1;jettySize=auto;html=1;entryX=0.25;entryY=1;entryDx=0;entryDy=0;endArrow=none;endFill=0;" parent="1" source="hpJ25cg99E9ZZXq1IkF3-6" target="hpJ25cg99E9ZZXq1IkF3-2" edge="1">
          <mxGeometry relative="1" as="geometry" />
        </mxCell>
        <mxCell id="hpJ25cg99E9ZZXq1IkF3-6" value="PhoneNumber" style="ellipse;whiteSpace=wrap;html=1;" parent="1" vertex="1">
          <mxGeometry x="940" y="680" width="120" height="80" as="geometry" />
        </mxCell>
        <mxCell id="hpJ25cg99E9ZZXq1IkF3-29" style="edgeStyle=none;rounded=0;orthogonalLoop=1;jettySize=auto;html=1;entryX=0.5;entryY=0;entryDx=0;entryDy=0;endArrow=none;endFill=0;" parent="1" source="hpJ25cg99E9ZZXq1IkF3-7" target="hpJ25cg99E9ZZXq1IkF3-1" edge="1">
          <mxGeometry relative="1" as="geometry" />
        </mxCell>
        <mxCell id="hpJ25cg99E9ZZXq1IkF3-7" value="Gender" style="ellipse;whiteSpace=wrap;html=1;" parent="1" vertex="1">
          <mxGeometry x="180" y="200" width="120" height="80" as="geometry" />
        </mxCell>
        <mxCell id="hpJ25cg99E9ZZXq1IkF3-48" style="edgeStyle=none;rounded=0;orthogonalLoop=1;jettySize=auto;html=1;entryX=0.5;entryY=1;entryDx=0;entryDy=0;endArrow=none;endFill=0;" parent="1" source="hpJ25cg99E9ZZXq1IkF3-8" target="hpJ25cg99E9ZZXq1IkF3-2" edge="1">
          <mxGeometry relative="1" as="geometry" />
        </mxCell>
        <mxCell id="hpJ25cg99E9ZZXq1IkF3-8" value="LastName" style="ellipse;whiteSpace=wrap;html=1;" parent="1" vertex="1">
          <mxGeometry x="1040" y="750" width="120" height="80" as="geometry" />
        </mxCell>
        <mxCell id="hpJ25cg99E9ZZXq1IkF3-33" style="edgeStyle=none;rounded=0;orthogonalLoop=1;jettySize=auto;html=1;endArrow=none;endFill=0;" parent="1" source="hpJ25cg99E9ZZXq1IkF3-9" target="hpJ25cg99E9ZZXq1IkF3-1" edge="1">
          <mxGeometry relative="1" as="geometry" />
        </mxCell>
        <mxCell id="hpJ25cg99E9ZZXq1IkF3-9" value="DateOfBirth" style="ellipse;whiteSpace=wrap;html=1;" parent="1" vertex="1">
          <mxGeometry x="190" y="780" width="120" height="80" as="geometry" />
        </mxCell>
        <mxCell id="hpJ25cg99E9ZZXq1IkF3-45" style="edgeStyle=none;rounded=0;orthogonalLoop=1;jettySize=auto;html=1;entryX=0.75;entryY=0;entryDx=0;entryDy=0;endArrow=none;endFill=0;" parent="1" source="hpJ25cg99E9ZZXq1IkF3-10" target="hpJ25cg99E9ZZXq1IkF3-2" edge="1">
          <mxGeometry relative="1" as="geometry" />
        </mxCell>
        <mxCell id="hpJ25cg99E9ZZXq1IkF3-10" value="Email" style="ellipse;whiteSpace=wrap;html=1;" parent="1" vertex="1">
          <mxGeometry x="1140" y="420" width="120" height="80" as="geometry" />
        </mxCell>
        <mxCell id="hpJ25cg99E9ZZXq1IkF3-41" style="edgeStyle=none;rounded=0;orthogonalLoop=1;jettySize=auto;html=1;entryX=0;entryY=0.25;entryDx=0;entryDy=0;endArrow=none;endFill=0;" parent="1" source="hpJ25cg99E9ZZXq1IkF3-11" target="hpJ25cg99E9ZZXq1IkF3-1" edge="1">
          <mxGeometry relative="1" as="geometry" />
        </mxCell>
        <mxCell id="hpJ25cg99E9ZZXq1IkF3-11" value="Religion" style="ellipse;whiteSpace=wrap;html=1;" parent="1" vertex="1">
          <mxGeometry x="-360" y="410" width="120" height="80" as="geometry" />
        </mxCell>
        <mxCell id="hpJ25cg99E9ZZXq1IkF3-44" style="edgeStyle=none;rounded=0;orthogonalLoop=1;jettySize=auto;html=1;endArrow=none;endFill=0;exitX=0.5;exitY=1;exitDx=0;exitDy=0;" parent="1" source="s2ZeLUQCP68ZUveNATXt-4" target="hpJ25cg99E9ZZXq1IkF3-2" edge="1">
          <mxGeometry relative="1" as="geometry">
            <mxPoint x="1100" y="380" as="sourcePoint" />
          </mxGeometry>
        </mxCell>
        <mxCell id="hpJ25cg99E9ZZXq1IkF3-308" style="edgeStyle=none;rounded=0;orthogonalLoop=1;jettySize=auto;html=1;entryX=0;entryY=0.5;entryDx=0;entryDy=0;endArrow=none;endFill=0;" parent="1" target="hpJ25cg99E9ZZXq1IkF3-307" edge="1">
          <mxGeometry relative="1" as="geometry">
            <mxPoint x="1159.9999999999727" y="340" as="sourcePoint" />
          </mxGeometry>
        </mxCell>
        <mxCell id="hpJ25cg99E9ZZXq1IkF3-309" style="edgeStyle=none;rounded=0;orthogonalLoop=1;jettySize=auto;html=1;entryX=0;entryY=1;entryDx=0;entryDy=0;endArrow=none;endFill=0;exitX=0.75;exitY=0;exitDx=0;exitDy=0;" parent="1" source="s2ZeLUQCP68ZUveNATXt-4" target="hpJ25cg99E9ZZXq1IkF3-306" edge="1">
          <mxGeometry relative="1" as="geometry">
            <mxPoint x="1129.4156743778967" y="305.1369785150855" as="sourcePoint" />
          </mxGeometry>
        </mxCell>
        <mxCell id="hpJ25cg99E9ZZXq1IkF3-310" style="edgeStyle=none;rounded=0;orthogonalLoop=1;jettySize=auto;html=1;endArrow=none;endFill=0;exitX=0.25;exitY=0;exitDx=0;exitDy=0;" parent="1" source="s2ZeLUQCP68ZUveNATXt-4" target="hpJ25cg99E9ZZXq1IkF3-305" edge="1">
          <mxGeometry relative="1" as="geometry">
            <mxPoint x="1072.9212965421648" y="304.30534544194506" as="sourcePoint" />
          </mxGeometry>
        </mxCell>
        <mxCell id="hpJ25cg99E9ZZXq1IkF3-311" style="edgeStyle=none;rounded=0;orthogonalLoop=1;jettySize=auto;html=1;endArrow=none;endFill=0;" parent="1" target="hpJ25cg99E9ZZXq1IkF3-304" edge="1">
          <mxGeometry relative="1" as="geometry">
            <mxPoint x="1040.0000000000273" y="340" as="sourcePoint" />
          </mxGeometry>
        </mxCell>
        <mxCell id="hpJ25cg99E9ZZXq1IkF3-40" style="edgeStyle=none;rounded=0;orthogonalLoop=1;jettySize=auto;html=1;entryX=0;entryY=0.5;entryDx=0;entryDy=0;endArrow=none;endFill=0;" parent="1" source="hpJ25cg99E9ZZXq1IkF3-13" target="hpJ25cg99E9ZZXq1IkF3-1" edge="1">
          <mxGeometry relative="1" as="geometry" />
        </mxCell>
        <mxCell id="hpJ25cg99E9ZZXq1IkF3-13" value="MoytherTongue" style="ellipse;whiteSpace=wrap;html=1;" parent="1" vertex="1">
          <mxGeometry x="-360" y="510" width="120" height="80" as="geometry" />
        </mxCell>
        <mxCell id="hpJ25cg99E9ZZXq1IkF3-36" style="edgeStyle=none;rounded=0;orthogonalLoop=1;jettySize=auto;html=1;entryX=0.25;entryY=1;entryDx=0;entryDy=0;endArrow=none;endFill=0;" parent="1" source="hpJ25cg99E9ZZXq1IkF3-14" target="hpJ25cg99E9ZZXq1IkF3-1" edge="1">
          <mxGeometry relative="1" as="geometry" />
        </mxCell>
        <mxCell id="hpJ25cg99E9ZZXq1IkF3-14" value="Education" style="ellipse;whiteSpace=wrap;html=1;" parent="1" vertex="1">
          <mxGeometry x="-70" y="850" width="120" height="80" as="geometry" />
        </mxCell>
        <mxCell id="hpJ25cg99E9ZZXq1IkF3-38" style="edgeStyle=none;rounded=0;orthogonalLoop=1;jettySize=auto;html=1;entryX=0;entryY=0.75;entryDx=0;entryDy=0;endArrow=none;endFill=0;" parent="1" source="hpJ25cg99E9ZZXq1IkF3-15" target="hpJ25cg99E9ZZXq1IkF3-1" edge="1">
          <mxGeometry relative="1" as="geometry" />
        </mxCell>
        <mxCell id="hpJ25cg99E9ZZXq1IkF3-15" value="Occupation" style="ellipse;whiteSpace=wrap;html=1;" parent="1" vertex="1">
          <mxGeometry x="-360" y="710" width="120" height="80" as="geometry" />
        </mxCell>
        <mxCell id="hpJ25cg99E9ZZXq1IkF3-37" style="edgeStyle=none;rounded=0;orthogonalLoop=1;jettySize=auto;html=1;entryX=0.25;entryY=1;entryDx=0;entryDy=0;endArrow=none;endFill=0;" parent="1" source="hpJ25cg99E9ZZXq1IkF3-16" target="hpJ25cg99E9ZZXq1IkF3-1" edge="1">
          <mxGeometry relative="1" as="geometry" />
        </mxCell>
        <mxCell id="hpJ25cg99E9ZZXq1IkF3-16" value="AnnualIncome" style="ellipse;whiteSpace=wrap;html=1;" parent="1" vertex="1">
          <mxGeometry x="-100" y="760" width="120" height="80" as="geometry" />
        </mxCell>
        <mxCell id="hpJ25cg99E9ZZXq1IkF3-31" style="edgeStyle=none;rounded=0;orthogonalLoop=1;jettySize=auto;html=1;entryX=0.888;entryY=0.004;entryDx=0;entryDy=0;endArrow=none;endFill=0;entryPerimeter=0;" parent="1" source="hpJ25cg99E9ZZXq1IkF3-17" target="hpJ25cg99E9ZZXq1IkF3-1" edge="1">
          <mxGeometry relative="1" as="geometry" />
        </mxCell>
        <mxCell id="hpJ25cg99E9ZZXq1IkF3-17" value="Height" style="ellipse;whiteSpace=wrap;html=1;" parent="1" vertex="1">
          <mxGeometry x="365" y="240" width="120" height="80" as="geometry" />
        </mxCell>
        <mxCell id="hpJ25cg99E9ZZXq1IkF3-30" style="edgeStyle=none;rounded=0;orthogonalLoop=1;jettySize=auto;html=1;entryX=0.75;entryY=0;entryDx=0;entryDy=0;endArrow=none;endFill=0;" parent="1" source="hpJ25cg99E9ZZXq1IkF3-18" target="hpJ25cg99E9ZZXq1IkF3-1" edge="1">
          <mxGeometry relative="1" as="geometry" />
        </mxCell>
        <mxCell id="hpJ25cg99E9ZZXq1IkF3-18" value="weight" style="ellipse;whiteSpace=wrap;html=1;" parent="1" vertex="1">
          <mxGeometry x="220" y="310" width="120" height="80" as="geometry" />
        </mxCell>
        <mxCell id="hpJ25cg99E9ZZXq1IkF3-39" style="edgeStyle=none;rounded=0;orthogonalLoop=1;jettySize=auto;html=1;entryX=0;entryY=0.75;entryDx=0;entryDy=0;endArrow=none;endFill=0;" parent="1" source="hpJ25cg99E9ZZXq1IkF3-19" target="hpJ25cg99E9ZZXq1IkF3-1" edge="1">
          <mxGeometry relative="1" as="geometry" />
        </mxCell>
        <mxCell id="hpJ25cg99E9ZZXq1IkF3-19" value="MariatalStatus" style="ellipse;whiteSpace=wrap;html=1;" parent="1" vertex="1">
          <mxGeometry x="-360" y="610" width="120" height="80" as="geometry" />
        </mxCell>
        <mxCell id="hpJ25cg99E9ZZXq1IkF3-27" style="edgeStyle=none;rounded=0;orthogonalLoop=1;jettySize=auto;html=1;entryX=0.25;entryY=0;entryDx=0;entryDy=0;endArrow=none;endFill=0;" parent="1" source="hpJ25cg99E9ZZXq1IkF3-20" target="hpJ25cg99E9ZZXq1IkF3-1" edge="1">
          <mxGeometry relative="1" as="geometry" />
        </mxCell>
        <mxCell id="hpJ25cg99E9ZZXq1IkF3-20" value="ProfilePicture" style="ellipse;whiteSpace=wrap;html=1;" parent="1" vertex="1">
          <mxGeometry x="-10" y="200" width="120" height="80" as="geometry" />
        </mxCell>
        <mxCell id="hpJ25cg99E9ZZXq1IkF3-26" style="edgeStyle=none;rounded=0;orthogonalLoop=1;jettySize=auto;html=1;entryX=0.25;entryY=0;entryDx=0;entryDy=0;endArrow=none;endFill=0;" parent="1" source="hpJ25cg99E9ZZXq1IkF3-21" target="hpJ25cg99E9ZZXq1IkF3-1" edge="1">
          <mxGeometry relative="1" as="geometry" />
        </mxCell>
        <mxCell id="hpJ25cg99E9ZZXq1IkF3-21" value="Bio" style="ellipse;whiteSpace=wrap;html=1;" parent="1" vertex="1">
          <mxGeometry x="-50" y="330" width="120" height="80" as="geometry" />
        </mxCell>
        <mxCell id="hpJ25cg99E9ZZXq1IkF3-35" style="edgeStyle=none;rounded=0;orthogonalLoop=1;jettySize=auto;html=1;endArrow=none;endFill=0;" parent="1" source="hpJ25cg99E9ZZXq1IkF3-22" target="hpJ25cg99E9ZZXq1IkF3-1" edge="1">
          <mxGeometry relative="1" as="geometry" />
        </mxCell>
        <mxCell id="hpJ25cg99E9ZZXq1IkF3-22" value="CreatedAt" style="ellipse;whiteSpace=wrap;html=1;" parent="1" vertex="1">
          <mxGeometry x="50" y="770" width="120" height="80" as="geometry" />
        </mxCell>
        <mxCell id="hpJ25cg99E9ZZXq1IkF3-34" style="edgeStyle=none;rounded=0;orthogonalLoop=1;jettySize=auto;html=1;entryX=0.5;entryY=1;entryDx=0;entryDy=0;endArrow=none;endFill=0;" parent="1" source="hpJ25cg99E9ZZXq1IkF3-23" target="hpJ25cg99E9ZZXq1IkF3-1" edge="1">
          <mxGeometry relative="1" as="geometry" />
        </mxCell>
        <mxCell id="hpJ25cg99E9ZZXq1IkF3-23" value="UpdatedAt" style="ellipse;whiteSpace=wrap;html=1;" parent="1" vertex="1">
          <mxGeometry x="140" y="900" width="120" height="80" as="geometry" />
        </mxCell>
        <mxCell id="hpJ25cg99E9ZZXq1IkF3-28" style="edgeStyle=none;rounded=0;orthogonalLoop=1;jettySize=auto;html=1;entryX=0.5;entryY=0;entryDx=0;entryDy=0;endArrow=none;endFill=0;" parent="1" source="hpJ25cg99E9ZZXq1IkF3-24" target="hpJ25cg99E9ZZXq1IkF3-1" edge="1">
          <mxGeometry relative="1" as="geometry" />
        </mxCell>
        <mxCell id="hpJ25cg99E9ZZXq1IkF3-24" value="IsSmoker" style="ellipse;whiteSpace=wrap;html=1;" parent="1" vertex="1">
          <mxGeometry x="80" y="290" width="120" height="80" as="geometry" />
        </mxCell>
        <mxCell id="hpJ25cg99E9ZZXq1IkF3-25" value="&lt;b&gt;&lt;u&gt;ID&lt;/u&gt;&lt;/b&gt;" style="ellipse;whiteSpace=wrap;html=1;" parent="1" vertex="1">
          <mxGeometry x="940" y="420" width="120" height="80" as="geometry" />
        </mxCell>
        <mxCell id="hpJ25cg99E9ZZXq1IkF3-51" style="edgeStyle=none;rounded=0;orthogonalLoop=1;jettySize=auto;html=1;endArrow=none;endFill=0;exitX=0;exitY=0.5;exitDx=0;exitDy=0;" parent="1" source="hpJ25cg99E9ZZXq1IkF3-50" edge="1">
          <mxGeometry relative="1" as="geometry">
            <mxPoint x="200" y="540" as="targetPoint" />
            <Array as="points">
              <mxPoint x="450" y="470" />
            </Array>
          </mxGeometry>
        </mxCell>
        <mxCell id="hpJ25cg99E9ZZXq1IkF3-53" value="1" style="edgeLabel;html=1;align=center;verticalAlign=middle;resizable=0;points=[];" parent="hpJ25cg99E9ZZXq1IkF3-51" vertex="1" connectable="0">
          <mxGeometry x="0.7786" relative="1" as="geometry">
            <mxPoint as="offset" />
          </mxGeometry>
        </mxCell>
        <mxCell id="hpJ25cg99E9ZZXq1IkF3-50" value="OfUser" style="rhombus;whiteSpace=wrap;html=1;" parent="1" vertex="1">
          <mxGeometry x="600" y="430" width="80" height="80" as="geometry" />
        </mxCell>
        <mxCell id="hpJ25cg99E9ZZXq1IkF3-56" style="edgeStyle=none;rounded=0;orthogonalLoop=1;jettySize=auto;html=1;entryX=0;entryY=0.5;entryDx=0;entryDy=0;endArrow=none;endFill=0;exitX=1;exitY=0.5;exitDx=0;exitDy=0;" parent="1" source="hpJ25cg99E9ZZXq1IkF3-55" target="hpJ25cg99E9ZZXq1IkF3-2" edge="1">
          <mxGeometry relative="1" as="geometry">
            <Array as="points">
              <mxPoint x="870" y="670" />
            </Array>
          </mxGeometry>
        </mxCell>
        <mxCell id="hpJ25cg99E9ZZXq1IkF3-58" value="1" style="edgeLabel;html=1;align=center;verticalAlign=middle;resizable=0;points=[];" parent="hpJ25cg99E9ZZXq1IkF3-56" vertex="1" connectable="0">
          <mxGeometry x="0.7116" relative="1" as="geometry">
            <mxPoint x="-1" as="offset" />
          </mxGeometry>
        </mxCell>
        <mxCell id="hpJ25cg99E9ZZXq1IkF3-55" value="ManagedBy" style="rhombus;whiteSpace=wrap;html=1;" parent="1" vertex="1">
          <mxGeometry x="600" y="630" width="80" height="80" as="geometry" />
        </mxCell>
        <mxCell id="hpJ25cg99E9ZZXq1IkF3-57" style="edgeStyle=none;rounded=0;orthogonalLoop=1;jettySize=auto;html=1;entryX=1;entryY=0.5;entryDx=0;entryDy=0;endArrow=none;endFill=0;exitX=0;exitY=0.5;exitDx=0;exitDy=0;" parent="1" source="hpJ25cg99E9ZZXq1IkF3-55" target="hpJ25cg99E9ZZXq1IkF3-1" edge="1">
          <mxGeometry relative="1" as="geometry">
            <Array as="points">
              <mxPoint x="450" y="670" />
            </Array>
          </mxGeometry>
        </mxCell>
        <mxCell id="hpJ25cg99E9ZZXq1IkF3-59" value="N" style="edgeLabel;html=1;align=center;verticalAlign=middle;resizable=0;points=[];" parent="hpJ25cg99E9ZZXq1IkF3-57" vertex="1" connectable="0">
          <mxGeometry x="0.7913" y="1" relative="1" as="geometry">
            <mxPoint as="offset" />
          </mxGeometry>
        </mxCell>
        <mxCell id="hpJ25cg99E9ZZXq1IkF3-74" value="Preference" style="rounded=0;whiteSpace=wrap;html=1;" parent="1" vertex="1">
          <mxGeometry x="30" y="1480" width="120" height="60" as="geometry" />
        </mxCell>
        <mxCell id="hpJ25cg99E9ZZXq1IkF3-75" style="edgeStyle=none;rounded=0;orthogonalLoop=1;jettySize=auto;html=1;entryX=0.5;entryY=1;entryDx=0;entryDy=0;endArrow=none;endFill=0;" parent="1" source="hpJ25cg99E9ZZXq1IkF3-76" target="hpJ25cg99E9ZZXq1IkF3-74" edge="1">
          <mxGeometry relative="1" as="geometry" />
        </mxCell>
        <mxCell id="hpJ25cg99E9ZZXq1IkF3-76" value="Religion" style="ellipse;whiteSpace=wrap;html=1;" parent="1" vertex="1">
          <mxGeometry x="120" y="1590" width="120" height="80" as="geometry" />
        </mxCell>
        <mxCell id="hpJ25cg99E9ZZXq1IkF3-77" style="edgeStyle=none;rounded=0;orthogonalLoop=1;jettySize=auto;html=1;entryX=0.5;entryY=1;entryDx=0;entryDy=0;endArrow=none;endFill=0;" parent="1" source="hpJ25cg99E9ZZXq1IkF3-78" target="hpJ25cg99E9ZZXq1IkF3-74" edge="1">
          <mxGeometry relative="1" as="geometry" />
        </mxCell>
        <mxCell id="hpJ25cg99E9ZZXq1IkF3-78" value="Occupation" style="ellipse;whiteSpace=wrap;html=1;" parent="1" vertex="1">
          <mxGeometry x="-60" y="1590" width="120" height="80" as="geometry" />
        </mxCell>
        <mxCell id="hpJ25cg99E9ZZXq1IkF3-79" style="edgeStyle=none;rounded=0;orthogonalLoop=1;jettySize=auto;html=1;entryX=0.5;entryY=1;entryDx=0;entryDy=0;endArrow=none;endFill=0;" parent="1" source="hpJ25cg99E9ZZXq1IkF3-80" target="hpJ25cg99E9ZZXq1IkF3-74" edge="1">
          <mxGeometry relative="1" as="geometry" />
        </mxCell>
        <mxCell id="hpJ25cg99E9ZZXq1IkF3-80" value="Education" style="ellipse;whiteSpace=wrap;html=1;" parent="1" vertex="1">
          <mxGeometry x="30" y="1670" width="120" height="80" as="geometry" />
        </mxCell>
        <mxCell id="hpJ25cg99E9ZZXq1IkF3-81" style="edgeStyle=none;rounded=0;orthogonalLoop=1;jettySize=auto;html=1;entryX=0.5;entryY=0;entryDx=0;entryDy=0;endArrow=none;endFill=0;" parent="1" source="hpJ25cg99E9ZZXq1IkF3-82" target="hpJ25cg99E9ZZXq1IkF3-74" edge="1">
          <mxGeometry relative="1" as="geometry" />
        </mxCell>
        <mxCell id="hpJ25cg99E9ZZXq1IkF3-82" value="HeightRange" style="ellipse;whiteSpace=wrap;html=1;" parent="1" vertex="1">
          <mxGeometry x="120" y="1320" width="120" height="80" as="geometry" />
        </mxCell>
        <mxCell id="hpJ25cg99E9ZZXq1IkF3-83" style="edgeStyle=none;rounded=0;orthogonalLoop=1;jettySize=auto;html=1;endArrow=none;endFill=0;" parent="1" source="hpJ25cg99E9ZZXq1IkF3-84" target="hpJ25cg99E9ZZXq1IkF3-74" edge="1">
          <mxGeometry relative="1" as="geometry" />
        </mxCell>
        <mxCell id="hpJ25cg99E9ZZXq1IkF3-84" value="AgeRange" style="ellipse;whiteSpace=wrap;html=1;" parent="1" vertex="1">
          <mxGeometry x="30" y="1240" width="120" height="80" as="geometry" />
        </mxCell>
        <mxCell id="hpJ25cg99E9ZZXq1IkF3-85" style="edgeStyle=none;rounded=0;orthogonalLoop=1;jettySize=auto;html=1;entryX=0.5;entryY=0;entryDx=0;entryDy=0;endArrow=none;endFill=0;" parent="1" source="hpJ25cg99E9ZZXq1IkF3-86" target="hpJ25cg99E9ZZXq1IkF3-74" edge="1">
          <mxGeometry relative="1" as="geometry" />
        </mxCell>
        <mxCell id="hpJ25cg99E9ZZXq1IkF3-86" value="&lt;b&gt;&lt;u&gt;ID&lt;/u&gt;&lt;/b&gt;" style="ellipse;whiteSpace=wrap;html=1;" parent="1" vertex="1">
          <mxGeometry x="-60" y="1320" width="120" height="80" as="geometry" />
        </mxCell>
        <mxCell id="hpJ25cg99E9ZZXq1IkF3-90" style="edgeStyle=none;rounded=0;orthogonalLoop=1;jettySize=auto;html=1;entryX=0;entryY=0.5;entryDx=0;entryDy=0;endArrow=none;endFill=0;" parent="1" source="hpJ25cg99E9ZZXq1IkF3-87" target="hpJ25cg99E9ZZXq1IkF3-74" edge="1">
          <mxGeometry relative="1" as="geometry" />
        </mxCell>
        <mxCell id="hpJ25cg99E9ZZXq1IkF3-87" value="CreatedAt" style="ellipse;whiteSpace=wrap;html=1;" parent="1" vertex="1">
          <mxGeometry x="-300" y="1490" width="120" height="80" as="geometry" />
        </mxCell>
        <mxCell id="hpJ25cg99E9ZZXq1IkF3-91" style="edgeStyle=none;rounded=0;orthogonalLoop=1;jettySize=auto;html=1;entryX=0;entryY=0.25;entryDx=0;entryDy=0;endArrow=none;endFill=0;" parent="1" source="hpJ25cg99E9ZZXq1IkF3-88" target="hpJ25cg99E9ZZXq1IkF3-74" edge="1">
          <mxGeometry relative="1" as="geometry" />
        </mxCell>
        <mxCell id="hpJ25cg99E9ZZXq1IkF3-88" value="MotherTongue" style="ellipse;whiteSpace=wrap;html=1;" parent="1" vertex="1">
          <mxGeometry x="-300" y="1390" width="120" height="80" as="geometry" />
        </mxCell>
        <mxCell id="hpJ25cg99E9ZZXq1IkF3-92" style="edgeStyle=none;rounded=0;orthogonalLoop=1;jettySize=auto;html=1;entryX=0;entryY=0.75;entryDx=0;entryDy=0;endArrow=none;endFill=0;" parent="1" source="hpJ25cg99E9ZZXq1IkF3-89" target="hpJ25cg99E9ZZXq1IkF3-74" edge="1">
          <mxGeometry relative="1" as="geometry" />
        </mxCell>
        <mxCell id="hpJ25cg99E9ZZXq1IkF3-89" value="UpdatedAt" style="ellipse;whiteSpace=wrap;html=1;" parent="1" vertex="1">
          <mxGeometry x="-300" y="1590" width="120" height="80" as="geometry" />
        </mxCell>
        <mxCell id="hpJ25cg99E9ZZXq1IkF3-109" style="edgeStyle=none;rounded=0;orthogonalLoop=1;jettySize=auto;html=1;entryX=0;entryY=1;entryDx=0;entryDy=0;endArrow=none;endFill=0;" parent="1" source="hpJ25cg99E9ZZXq1IkF3-108" target="hpJ25cg99E9ZZXq1IkF3-1" edge="1">
          <mxGeometry relative="1" as="geometry">
            <Array as="points">
              <mxPoint x="-120" y="780" />
            </Array>
          </mxGeometry>
        </mxCell>
        <mxCell id="hpJ25cg99E9ZZXq1IkF3-111" value="1" style="edgeLabel;html=1;align=center;verticalAlign=middle;resizable=0;points=[];" parent="hpJ25cg99E9ZZXq1IkF3-109" vertex="1" connectable="0">
          <mxGeometry x="0.8857" y="-1" relative="1" as="geometry">
            <mxPoint as="offset" />
          </mxGeometry>
        </mxCell>
        <mxCell id="hpJ25cg99E9ZZXq1IkF3-110" style="edgeStyle=none;rounded=0;orthogonalLoop=1;jettySize=auto;html=1;entryX=0;entryY=0;entryDx=0;entryDy=0;endArrow=none;endFill=0;" parent="1" source="hpJ25cg99E9ZZXq1IkF3-108" target="hpJ25cg99E9ZZXq1IkF3-74" edge="1">
          <mxGeometry relative="1" as="geometry">
            <Array as="points">
              <mxPoint x="-120" y="1340" />
            </Array>
          </mxGeometry>
        </mxCell>
        <mxCell id="hpJ25cg99E9ZZXq1IkF3-112" value="1" style="edgeLabel;html=1;align=center;verticalAlign=middle;resizable=0;points=[];" parent="hpJ25cg99E9ZZXq1IkF3-110" vertex="1" connectable="0">
          <mxGeometry x="0.8593" y="2" relative="1" as="geometry">
            <mxPoint as="offset" />
          </mxGeometry>
        </mxCell>
        <mxCell id="hpJ25cg99E9ZZXq1IkF3-108" value="Provides" style="rhombus;whiteSpace=wrap;html=1;" parent="1" vertex="1">
          <mxGeometry x="-160" y="1040" width="80" height="80" as="geometry" />
        </mxCell>
        <mxCell id="hpJ25cg99E9ZZXq1IkF3-115" value="Message" style="rounded=0;whiteSpace=wrap;html=1;" parent="1" vertex="1">
          <mxGeometry x="1040" y="1150" width="120" height="60" as="geometry" />
        </mxCell>
        <mxCell id="hpJ25cg99E9ZZXq1IkF3-116" style="edgeStyle=none;rounded=0;orthogonalLoop=1;jettySize=auto;html=1;entryX=0.5;entryY=1;entryDx=0;entryDy=0;endArrow=none;endFill=0;" parent="1" source="hpJ25cg99E9ZZXq1IkF3-117" target="hpJ25cg99E9ZZXq1IkF3-115" edge="1">
          <mxGeometry relative="1" as="geometry" />
        </mxCell>
        <mxCell id="hpJ25cg99E9ZZXq1IkF3-117" value="SentAt" style="ellipse;whiteSpace=wrap;html=1;" parent="1" vertex="1">
          <mxGeometry x="1140" y="1270" width="120" height="80" as="geometry" />
        </mxCell>
        <mxCell id="hpJ25cg99E9ZZXq1IkF3-118" style="edgeStyle=none;rounded=0;orthogonalLoop=1;jettySize=auto;html=1;entryX=0.5;entryY=1;entryDx=0;entryDy=0;endArrow=none;endFill=0;" parent="1" source="hpJ25cg99E9ZZXq1IkF3-119" target="hpJ25cg99E9ZZXq1IkF3-115" edge="1">
          <mxGeometry relative="1" as="geometry" />
        </mxCell>
        <mxCell id="hpJ25cg99E9ZZXq1IkF3-119" value="Content" style="ellipse;whiteSpace=wrap;html=1;" parent="1" vertex="1">
          <mxGeometry x="940" y="1270" width="120" height="80" as="geometry" />
        </mxCell>
        <mxCell id="hpJ25cg99E9ZZXq1IkF3-122" style="edgeStyle=none;rounded=0;orthogonalLoop=1;jettySize=auto;html=1;entryX=0.5;entryY=0;entryDx=0;entryDy=0;endArrow=none;endFill=0;" parent="1" source="hpJ25cg99E9ZZXq1IkF3-123" target="hpJ25cg99E9ZZXq1IkF3-115" edge="1">
          <mxGeometry relative="1" as="geometry" />
        </mxCell>
        <mxCell id="hpJ25cg99E9ZZXq1IkF3-123" value="ReceiverID" style="ellipse;whiteSpace=wrap;html=1;" parent="1" vertex="1">
          <mxGeometry x="1140" y="1000" width="120" height="80" as="geometry" />
        </mxCell>
        <mxCell id="hpJ25cg99E9ZZXq1IkF3-124" style="edgeStyle=none;rounded=0;orthogonalLoop=1;jettySize=auto;html=1;endArrow=none;endFill=0;" parent="1" source="hpJ25cg99E9ZZXq1IkF3-125" target="hpJ25cg99E9ZZXq1IkF3-115" edge="1">
          <mxGeometry relative="1" as="geometry" />
        </mxCell>
        <mxCell id="hpJ25cg99E9ZZXq1IkF3-125" value="SenderID" style="ellipse;whiteSpace=wrap;html=1;" parent="1" vertex="1">
          <mxGeometry x="1040" y="920" width="120" height="80" as="geometry" />
        </mxCell>
        <mxCell id="hpJ25cg99E9ZZXq1IkF3-126" style="edgeStyle=none;rounded=0;orthogonalLoop=1;jettySize=auto;html=1;entryX=0.5;entryY=0;entryDx=0;entryDy=0;endArrow=none;endFill=0;" parent="1" source="hpJ25cg99E9ZZXq1IkF3-127" target="hpJ25cg99E9ZZXq1IkF3-115" edge="1">
          <mxGeometry relative="1" as="geometry" />
        </mxCell>
        <mxCell id="hpJ25cg99E9ZZXq1IkF3-127" value="&lt;b&gt;&lt;u&gt;ID&lt;/u&gt;&lt;/b&gt;" style="ellipse;whiteSpace=wrap;html=1;" parent="1" vertex="1">
          <mxGeometry x="940" y="1000" width="120" height="80" as="geometry" />
        </mxCell>
        <mxCell id="hpJ25cg99E9ZZXq1IkF3-130" style="edgeStyle=none;rounded=0;orthogonalLoop=1;jettySize=auto;html=1;entryX=1;entryY=0.5;entryDx=0;entryDy=0;endArrow=none;endFill=0;" parent="1" source="hpJ25cg99E9ZZXq1IkF3-129" target="hpJ25cg99E9ZZXq1IkF3-2" edge="1">
          <mxGeometry relative="1" as="geometry">
            <Array as="points">
              <mxPoint x="1490" y="580" />
            </Array>
          </mxGeometry>
        </mxCell>
        <mxCell id="hpJ25cg99E9ZZXq1IkF3-302" value="1" style="edgeLabel;html=1;align=center;verticalAlign=middle;resizable=0;points=[];" parent="hpJ25cg99E9ZZXq1IkF3-130" vertex="1" connectable="0">
          <mxGeometry x="0.8781" y="4" relative="1" as="geometry">
            <mxPoint as="offset" />
          </mxGeometry>
        </mxCell>
        <mxCell id="hpJ25cg99E9ZZXq1IkF3-131" style="edgeStyle=none;rounded=0;orthogonalLoop=1;jettySize=auto;html=1;entryX=1;entryY=0.5;entryDx=0;entryDy=0;endArrow=none;endFill=0;" parent="1" source="hpJ25cg99E9ZZXq1IkF3-129" target="hpJ25cg99E9ZZXq1IkF3-115" edge="1">
          <mxGeometry relative="1" as="geometry">
            <Array as="points">
              <mxPoint x="1490" y="1180" />
            </Array>
          </mxGeometry>
        </mxCell>
        <mxCell id="hpJ25cg99E9ZZXq1IkF3-303" value="1" style="edgeLabel;html=1;align=center;verticalAlign=middle;resizable=0;points=[];" parent="hpJ25cg99E9ZZXq1IkF3-131" vertex="1" connectable="0">
          <mxGeometry x="0.8608" y="-1" relative="1" as="geometry">
            <mxPoint as="offset" />
          </mxGeometry>
        </mxCell>
        <mxCell id="hpJ25cg99E9ZZXq1IkF3-129" value="Re3ceive" style="rhombus;whiteSpace=wrap;html=1;" parent="1" vertex="1">
          <mxGeometry x="1450" y="860" width="80" height="80" as="geometry" />
        </mxCell>
        <mxCell id="hpJ25cg99E9ZZXq1IkF3-133" style="edgeStyle=none;rounded=0;orthogonalLoop=1;jettySize=auto;html=1;entryX=1;entryY=0.25;entryDx=0;entryDy=0;endArrow=none;endFill=0;" parent="1" source="hpJ25cg99E9ZZXq1IkF3-132" target="hpJ25cg99E9ZZXq1IkF3-2" edge="1">
          <mxGeometry relative="1" as="geometry" />
        </mxCell>
        <mxCell id="hpJ25cg99E9ZZXq1IkF3-132" value="IsActivated" style="ellipse;whiteSpace=wrap;html=1;" parent="1" vertex="1">
          <mxGeometry x="1290" y="450" width="120" height="80" as="geometry" />
        </mxCell>
        <mxCell id="hpJ25cg99E9ZZXq1IkF3-149" style="edgeStyle=none;rounded=0;orthogonalLoop=1;jettySize=auto;html=1;entryX=1;entryY=0.5;entryDx=0;entryDy=0;endArrow=none;endFill=0;" parent="1" source="hpJ25cg99E9ZZXq1IkF3-136" target="hpJ25cg99E9ZZXq1IkF3-150" edge="1">
          <mxGeometry relative="1" as="geometry" />
        </mxCell>
        <mxCell id="hpJ25cg99E9ZZXq1IkF3-153" value="1" style="edgeLabel;html=1;align=center;verticalAlign=middle;resizable=0;points=[];" parent="hpJ25cg99E9ZZXq1IkF3-149" vertex="1" connectable="0">
          <mxGeometry x="-0.6588" y="-2" relative="1" as="geometry">
            <mxPoint x="1" as="offset" />
          </mxGeometry>
        </mxCell>
        <mxCell id="hpJ25cg99E9ZZXq1IkF3-136" value="MemberShip" style="rounded=0;whiteSpace=wrap;html=1;" parent="1" vertex="1">
          <mxGeometry x="700" y="110" width="120" height="60" as="geometry" />
        </mxCell>
        <mxCell id="hpJ25cg99E9ZZXq1IkF3-141" style="edgeStyle=none;rounded=0;orthogonalLoop=1;jettySize=auto;html=1;endArrow=none;endFill=0;exitX=0.731;exitY=0.941;exitDx=0;exitDy=0;exitPerimeter=0;entryX=0.25;entryY=0;entryDx=0;entryDy=0;" parent="1" source="hpJ25cg99E9ZZXq1IkF3-25" target="hpJ25cg99E9ZZXq1IkF3-2" edge="1">
          <mxGeometry relative="1" as="geometry">
            <mxPoint x="1100" y="550" as="targetPoint" />
            <mxPoint x="1037.3789988557764" y="465.59269851250974" as="sourcePoint" />
          </mxGeometry>
        </mxCell>
        <mxCell id="hpJ25cg99E9ZZXq1IkF3-143" style="edgeStyle=none;rounded=0;orthogonalLoop=1;jettySize=auto;html=1;entryX=1;entryY=0.5;entryDx=0;entryDy=0;endArrow=none;endFill=0;" parent="1" source="hpJ25cg99E9ZZXq1IkF3-144" target="hpJ25cg99E9ZZXq1IkF3-136" edge="1">
          <mxGeometry relative="1" as="geometry">
            <mxPoint x="760" y="110" as="targetPoint" />
          </mxGeometry>
        </mxCell>
        <mxCell id="hpJ25cg99E9ZZXq1IkF3-144" value="Description" style="ellipse;whiteSpace=wrap;html=1;" parent="1" vertex="1">
          <mxGeometry x="870" y="100" width="120" height="80" as="geometry" />
        </mxCell>
        <mxCell id="hpJ25cg99E9ZZXq1IkF3-145" style="edgeStyle=none;rounded=0;orthogonalLoop=1;jettySize=auto;html=1;endArrow=none;endFill=0;" parent="1" source="hpJ25cg99E9ZZXq1IkF3-146" edge="1">
          <mxGeometry relative="1" as="geometry">
            <mxPoint x="760" y="110" as="targetPoint" />
          </mxGeometry>
        </mxCell>
        <mxCell id="hpJ25cg99E9ZZXq1IkF3-146" value="Type" style="ellipse;whiteSpace=wrap;html=1;" parent="1" vertex="1">
          <mxGeometry x="700" y="-10" width="120" height="80" as="geometry" />
        </mxCell>
        <mxCell id="hpJ25cg99E9ZZXq1IkF3-147" style="edgeStyle=none;rounded=0;orthogonalLoop=1;jettySize=auto;html=1;entryX=0.5;entryY=1;entryDx=0;entryDy=0;endArrow=none;endFill=0;" parent="1" source="hpJ25cg99E9ZZXq1IkF3-148" target="hpJ25cg99E9ZZXq1IkF3-136" edge="1">
          <mxGeometry relative="1" as="geometry">
            <mxPoint x="760" y="110" as="targetPoint" />
          </mxGeometry>
        </mxCell>
        <mxCell id="hpJ25cg99E9ZZXq1IkF3-148" value="&lt;b&gt;&lt;u&gt;ID&lt;/u&gt;&lt;/b&gt;" style="ellipse;whiteSpace=wrap;html=1;" parent="1" vertex="1">
          <mxGeometry x="700" y="220" width="120" height="80" as="geometry" />
        </mxCell>
        <mxCell id="hpJ25cg99E9ZZXq1IkF3-151" style="edgeStyle=none;rounded=0;orthogonalLoop=1;jettySize=auto;html=1;endArrow=none;endFill=0;exitX=0;exitY=0.5;exitDx=0;exitDy=0;" parent="1" source="hpJ25cg99E9ZZXq1IkF3-150" target="hpJ25cg99E9ZZXq1IkF3-1" edge="1">
          <mxGeometry relative="1" as="geometry">
            <Array as="points">
              <mxPoint x="520" y="140" />
              <mxPoint x="520" y="360" />
            </Array>
          </mxGeometry>
        </mxCell>
        <mxCell id="hpJ25cg99E9ZZXq1IkF3-152" value="N" style="edgeLabel;html=1;align=center;verticalAlign=middle;resizable=0;points=[];" parent="hpJ25cg99E9ZZXq1IkF3-151" vertex="1" connectable="0">
          <mxGeometry x="0.6813" relative="1" as="geometry">
            <mxPoint as="offset" />
          </mxGeometry>
        </mxCell>
        <mxCell id="hpJ25cg99E9ZZXq1IkF3-150" value="Has" style="rhombus;whiteSpace=wrap;html=1;" parent="1" vertex="1">
          <mxGeometry x="560" y="100" width="80" height="80" as="geometry" />
        </mxCell>
        <mxCell id="hpJ25cg99E9ZZXq1IkF3-156" value="&lt;b&gt;&lt;u&gt;ID&lt;/u&gt;&lt;/b&gt;" style="ellipse;whiteSpace=wrap;html=1;" parent="1" vertex="1">
          <mxGeometry x="480" y="1150" width="120" height="80" as="geometry" />
        </mxCell>
        <mxCell id="hpJ25cg99E9ZZXq1IkF3-158" value="UserID" style="ellipse;whiteSpace=wrap;html=1;" parent="1" vertex="1">
          <mxGeometry x="680" y="1150" width="120" height="80" as="geometry" />
        </mxCell>
        <mxCell id="hpJ25cg99E9ZZXq1IkF3-159" style="edgeStyle=none;rounded=0;orthogonalLoop=1;jettySize=auto;html=1;endArrow=none;endFill=0;exitX=0.5;exitY=1;exitDx=0;exitDy=0;" parent="1" source="hpJ25cg99E9ZZXq1IkF3-170" target="hpJ25cg99E9ZZXq1IkF3-162" edge="1">
          <mxGeometry relative="1" as="geometry">
            <mxPoint x="696.75475732837" y="1309.9414482662105" as="sourcePoint" />
          </mxGeometry>
        </mxCell>
        <mxCell id="hpJ25cg99E9ZZXq1IkF3-173" value="N" style="edgeLabel;html=1;align=center;verticalAlign=middle;resizable=0;points=[];" parent="hpJ25cg99E9ZZXq1IkF3-159" vertex="1" connectable="0">
          <mxGeometry x="0.6634" relative="1" as="geometry">
            <mxPoint as="offset" />
          </mxGeometry>
        </mxCell>
        <mxCell id="hpJ25cg99E9ZZXq1IkF3-179" style="edgeStyle=none;rounded=0;orthogonalLoop=1;jettySize=auto;html=1;entryX=0.5;entryY=0;entryDx=0;entryDy=0;endArrow=none;endFill=0;" parent="hpJ25cg99E9ZZXq1IkF3-159" source="hpJ25cg99E9ZZXq1IkF3-177" target="hpJ25cg99E9ZZXq1IkF3-181" edge="1">
          <mxGeometry relative="1" as="geometry" />
        </mxCell>
        <mxCell id="hpJ25cg99E9ZZXq1IkF3-160" style="edgeStyle=none;rounded=0;orthogonalLoop=1;jettySize=auto;html=1;entryX=0.5;entryY=0;entryDx=0;entryDy=0;endArrow=none;endFill=0;" parent="1" source="hpJ25cg99E9ZZXq1IkF3-156" target="hpJ25cg99E9ZZXq1IkF3-162" edge="1">
          <mxGeometry relative="1" as="geometry" />
        </mxCell>
        <mxCell id="hpJ25cg99E9ZZXq1IkF3-161" style="edgeStyle=none;rounded=0;orthogonalLoop=1;jettySize=auto;html=1;entryX=0.5;entryY=0;entryDx=0;entryDy=0;endArrow=none;endFill=0;" parent="1" source="hpJ25cg99E9ZZXq1IkF3-158" target="hpJ25cg99E9ZZXq1IkF3-162" edge="1">
          <mxGeometry relative="1" as="geometry" />
        </mxCell>
        <mxCell id="hpJ25cg99E9ZZXq1IkF3-162" value="Match" style="rounded=0;whiteSpace=wrap;html=1;" parent="1" vertex="1">
          <mxGeometry x="580" y="1280" width="120" height="60" as="geometry" />
        </mxCell>
        <mxCell id="hpJ25cg99E9ZZXq1IkF3-163" value="Level" style="ellipse;whiteSpace=wrap;html=1;" parent="1" vertex="1">
          <mxGeometry x="485" y="1390" width="120" height="80" as="geometry" />
        </mxCell>
        <mxCell id="hpJ25cg99E9ZZXq1IkF3-164" style="edgeStyle=none;rounded=0;orthogonalLoop=1;jettySize=auto;html=1;entryX=0.5;entryY=1;entryDx=0;entryDy=0;endArrow=none;endFill=0;" parent="1" source="hpJ25cg99E9ZZXq1IkF3-163" target="hpJ25cg99E9ZZXq1IkF3-162" edge="1">
          <mxGeometry relative="1" as="geometry" />
        </mxCell>
        <mxCell id="hpJ25cg99E9ZZXq1IkF3-167" value="FoundAt" style="ellipse;whiteSpace=wrap;html=1;" parent="1" vertex="1">
          <mxGeometry x="680" y="1390" width="120" height="80" as="geometry" />
        </mxCell>
        <mxCell id="hpJ25cg99E9ZZXq1IkF3-168" style="edgeStyle=none;rounded=0;orthogonalLoop=1;jettySize=auto;html=1;entryX=0.5;entryY=1;entryDx=0;entryDy=0;endArrow=none;endFill=0;" parent="1" source="hpJ25cg99E9ZZXq1IkF3-167" target="hpJ25cg99E9ZZXq1IkF3-162" edge="1">
          <mxGeometry relative="1" as="geometry" />
        </mxCell>
        <mxCell id="hpJ25cg99E9ZZXq1IkF3-171" style="edgeStyle=none;rounded=0;orthogonalLoop=1;jettySize=auto;html=1;entryX=1;entryY=0.75;entryDx=0;entryDy=0;endArrow=none;endFill=0;" parent="1" source="hpJ25cg99E9ZZXq1IkF3-170" target="hpJ25cg99E9ZZXq1IkF3-1" edge="1">
          <mxGeometry relative="1" as="geometry">
            <Array as="points">
              <mxPoint x="450" y="780" />
            </Array>
          </mxGeometry>
        </mxCell>
        <mxCell id="hpJ25cg99E9ZZXq1IkF3-172" value="2" style="edgeLabel;html=1;align=center;verticalAlign=middle;resizable=0;points=[];" parent="hpJ25cg99E9ZZXq1IkF3-171" vertex="1" connectable="0">
          <mxGeometry x="0.7623" relative="1" as="geometry">
            <mxPoint as="offset" />
          </mxGeometry>
        </mxCell>
        <mxCell id="hpJ25cg99E9ZZXq1IkF3-170" value="HasMatch" style="rhombus;whiteSpace=wrap;html=1;" parent="1" vertex="1">
          <mxGeometry x="600" y="740" width="80" height="80" as="geometry" />
        </mxCell>
        <mxCell id="hpJ25cg99E9ZZXq1IkF3-177" value="&lt;b&gt;&lt;u&gt;ID&lt;/u&gt;&lt;/b&gt;" style="ellipse;whiteSpace=wrap;html=1;" parent="1" vertex="1">
          <mxGeometry x="-740" y="690" width="120" height="80" as="geometry" />
        </mxCell>
        <mxCell id="hpJ25cg99E9ZZXq1IkF3-178" value="ViewerID" style="ellipse;whiteSpace=wrap;html=1;" parent="1" vertex="1">
          <mxGeometry x="-560" y="690" width="120" height="80" as="geometry" />
        </mxCell>
        <mxCell id="hpJ25cg99E9ZZXq1IkF3-180" style="edgeStyle=none;rounded=0;orthogonalLoop=1;jettySize=auto;html=1;entryX=0.5;entryY=0;entryDx=0;entryDy=0;endArrow=none;endFill=0;" parent="1" source="hpJ25cg99E9ZZXq1IkF3-178" target="hpJ25cg99E9ZZXq1IkF3-181" edge="1">
          <mxGeometry relative="1" as="geometry" />
        </mxCell>
        <mxCell id="hpJ25cg99E9ZZXq1IkF3-188" style="edgeStyle=none;rounded=0;orthogonalLoop=1;jettySize=auto;html=1;entryX=0;entryY=1;entryDx=0;entryDy=0;endArrow=none;endFill=0;exitX=1;exitY=0.5;exitDx=0;exitDy=0;" parent="1" source="hpJ25cg99E9ZZXq1IkF3-189" target="hpJ25cg99E9ZZXq1IkF3-1" edge="1">
          <mxGeometry relative="1" as="geometry">
            <Array as="points">
              <mxPoint x="-160" y="870" />
              <mxPoint x="-160" y="710" />
            </Array>
          </mxGeometry>
        </mxCell>
        <mxCell id="hpJ25cg99E9ZZXq1IkF3-301" value="N" style="edgeLabel;html=1;align=center;verticalAlign=middle;resizable=0;points=[];" parent="hpJ25cg99E9ZZXq1IkF3-188" vertex="1" connectable="0">
          <mxGeometry x="0.7824" y="3" relative="1" as="geometry">
            <mxPoint as="offset" />
          </mxGeometry>
        </mxCell>
        <mxCell id="hpJ25cg99E9ZZXq1IkF3-181" value="ProfileView" style="rounded=0;whiteSpace=wrap;html=1;" parent="1" vertex="1">
          <mxGeometry x="-660" y="840" width="120" height="60" as="geometry" />
        </mxCell>
        <mxCell id="hpJ25cg99E9ZZXq1IkF3-182" value="ViewedAt" style="ellipse;whiteSpace=wrap;html=1;" parent="1" vertex="1">
          <mxGeometry x="-660" y="980" width="120" height="80" as="geometry" />
        </mxCell>
        <mxCell id="hpJ25cg99E9ZZXq1IkF3-183" style="edgeStyle=none;rounded=0;orthogonalLoop=1;jettySize=auto;html=1;entryX=0.5;entryY=1;entryDx=0;entryDy=0;endArrow=none;endFill=0;" parent="1" source="hpJ25cg99E9ZZXq1IkF3-182" target="hpJ25cg99E9ZZXq1IkF3-181" edge="1">
          <mxGeometry relative="1" as="geometry" />
        </mxCell>
        <mxCell id="hpJ25cg99E9ZZXq1IkF3-190" value="" style="edgeStyle=none;rounded=0;orthogonalLoop=1;jettySize=auto;html=1;entryX=0;entryY=1;entryDx=0;entryDy=0;endArrow=none;endFill=0;" parent="1" source="hpJ25cg99E9ZZXq1IkF3-181" target="hpJ25cg99E9ZZXq1IkF3-189" edge="1">
          <mxGeometry relative="1" as="geometry">
            <mxPoint x="-570" y="966" as="sourcePoint" />
            <mxPoint x="80" y="580" as="targetPoint" />
            <Array as="points">
              <mxPoint x="-320" y="870" />
            </Array>
          </mxGeometry>
        </mxCell>
        <mxCell id="hpJ25cg99E9ZZXq1IkF3-300" value="M" style="edgeLabel;html=1;align=center;verticalAlign=middle;resizable=0;points=[];" parent="hpJ25cg99E9ZZXq1IkF3-190" vertex="1" connectable="0">
          <mxGeometry x="-0.6738" y="2" relative="1" as="geometry">
            <mxPoint as="offset" />
          </mxGeometry>
        </mxCell>
        <mxCell id="hpJ25cg99E9ZZXq1IkF3-189" value="ViewedBy" style="rhombus;whiteSpace=wrap;html=1;" parent="1" vertex="1">
          <mxGeometry x="-320" y="830" width="80" height="80" as="geometry" />
        </mxCell>
        <mxCell id="hpJ25cg99E9ZZXq1IkF3-245" style="edgeStyle=orthogonalEdgeStyle;rounded=0;orthogonalLoop=1;jettySize=auto;html=1;entryX=0.5;entryY=0;entryDx=0;entryDy=0;endArrow=none;endFill=0;" parent="1" target="hpJ25cg99E9ZZXq1IkF3-271" edge="1">
          <mxGeometry relative="1" as="geometry">
            <mxPoint x="1930" y="410" as="sourcePoint" />
          </mxGeometry>
        </mxCell>
        <mxCell id="hpJ25cg99E9ZZXq1IkF3-246" value="M" style="edgeLabel;html=1;align=center;verticalAlign=middle;resizable=0;points=[];" parent="hpJ25cg99E9ZZXq1IkF3-245" vertex="1" connectable="0">
          <mxGeometry x="-0.856" y="-2" relative="1" as="geometry">
            <mxPoint as="offset" />
          </mxGeometry>
        </mxCell>
        <mxCell id="hpJ25cg99E9ZZXq1IkF3-247" value="Staff" style="rounded=0;whiteSpace=wrap;html=1;" parent="1" vertex="1">
          <mxGeometry x="1870" y="350" width="120" height="60" as="geometry" />
        </mxCell>
        <mxCell id="hpJ25cg99E9ZZXq1IkF3-248" style="rounded=0;orthogonalLoop=1;jettySize=auto;html=1;endArrow=none;endFill=0;" parent="1" source="hpJ25cg99E9ZZXq1IkF3-249" target="hpJ25cg99E9ZZXq1IkF3-247" edge="1">
          <mxGeometry relative="1" as="geometry" />
        </mxCell>
        <mxCell id="hpJ25cg99E9ZZXq1IkF3-249" value="Password" style="ellipse;whiteSpace=wrap;html=1;" parent="1" vertex="1">
          <mxGeometry x="1870" y="90" width="120" height="80" as="geometry" />
        </mxCell>
        <mxCell id="hpJ25cg99E9ZZXq1IkF3-250" style="rounded=0;orthogonalLoop=1;jettySize=auto;html=1;entryX=0;entryY=0.5;entryDx=0;entryDy=0;endArrow=none;endFill=0;" parent="1" source="hpJ25cg99E9ZZXq1IkF3-251" target="hpJ25cg99E9ZZXq1IkF3-247" edge="1">
          <mxGeometry relative="1" as="geometry" />
        </mxCell>
        <mxCell id="hpJ25cg99E9ZZXq1IkF3-251" value="&lt;u&gt;&lt;font style=&quot;font-size: 18px;&quot;&gt;&lt;b&gt;ID&lt;/b&gt;&lt;/font&gt;&lt;/u&gt;" style="ellipse;whiteSpace=wrap;html=1;" parent="1" vertex="1">
          <mxGeometry x="1620" y="390" width="120" height="80" as="geometry" />
        </mxCell>
        <mxCell id="hpJ25cg99E9ZZXq1IkF3-252" style="rounded=0;orthogonalLoop=1;jettySize=auto;html=1;endArrow=none;endFill=0;" parent="1" source="hpJ25cg99E9ZZXq1IkF3-253" target="hpJ25cg99E9ZZXq1IkF3-247" edge="1">
          <mxGeometry relative="1" as="geometry" />
        </mxCell>
        <mxCell id="hpJ25cg99E9ZZXq1IkF3-253" value="Name" style="ellipse;whiteSpace=wrap;html=1;" parent="1" vertex="1">
          <mxGeometry x="2000" y="470" width="120" height="80" as="geometry" />
        </mxCell>
        <mxCell id="hpJ25cg99E9ZZXq1IkF3-254" style="rounded=0;orthogonalLoop=1;jettySize=auto;html=1;entryX=0.25;entryY=0;entryDx=0;entryDy=0;endArrow=none;endFill=0;" parent="1" source="hpJ25cg99E9ZZXq1IkF3-255" target="hpJ25cg99E9ZZXq1IkF3-247" edge="1">
          <mxGeometry relative="1" as="geometry" />
        </mxCell>
        <mxCell id="hpJ25cg99E9ZZXq1IkF3-255" value="Email" style="ellipse;whiteSpace=wrap;html=1;" parent="1" vertex="1">
          <mxGeometry x="1750" y="170" width="120" height="80" as="geometry" />
        </mxCell>
        <mxCell id="hpJ25cg99E9ZZXq1IkF3-256" style="rounded=0;orthogonalLoop=1;jettySize=auto;html=1;entryX=0;entryY=0.5;entryDx=0;entryDy=0;endArrow=none;endFill=0;exitX=1;exitY=0.5;exitDx=0;exitDy=0;" parent="1" source="s2ZeLUQCP68ZUveNATXt-11" target="hpJ25cg99E9ZZXq1IkF3-247" edge="1">
          <mxGeometry relative="1" as="geometry">
            <mxPoint x="1739.9230176603014" y="322.18800784902305" as="sourcePoint" />
          </mxGeometry>
        </mxCell>
        <mxCell id="hpJ25cg99E9ZZXq1IkF3-258" style="rounded=0;orthogonalLoop=1;jettySize=auto;html=1;endArrow=none;endFill=0;" parent="1" source="hpJ25cg99E9ZZXq1IkF3-259" target="hpJ25cg99E9ZZXq1IkF3-247" edge="1">
          <mxGeometry relative="1" as="geometry" />
        </mxCell>
        <mxCell id="hpJ25cg99E9ZZXq1IkF3-259" value="ContactNo" style="ellipse;whiteSpace=wrap;html=1;" parent="1" vertex="1">
          <mxGeometry x="2000" y="170" width="120" height="80" as="geometry" />
        </mxCell>
        <mxCell id="hpJ25cg99E9ZZXq1IkF3-260" style="rounded=0;orthogonalLoop=1;jettySize=auto;html=1;endArrow=none;endFill=0;entryX=0.25;entryY=1;entryDx=0;entryDy=0;" parent="1" source="hpJ25cg99E9ZZXq1IkF3-261" target="hpJ25cg99E9ZZXq1IkF3-247" edge="1">
          <mxGeometry relative="1" as="geometry" />
        </mxCell>
        <mxCell id="hpJ25cg99E9ZZXq1IkF3-261" value="DOB" style="ellipse;whiteSpace=wrap;html=1;" parent="1" vertex="1">
          <mxGeometry x="1750" y="480" width="120" height="80" as="geometry" />
        </mxCell>
        <mxCell id="hpJ25cg99E9ZZXq1IkF3-262" style="rounded=0;orthogonalLoop=1;jettySize=auto;html=1;endArrow=none;endFill=0;" parent="1" source="hpJ25cg99E9ZZXq1IkF3-263" target="hpJ25cg99E9ZZXq1IkF3-247" edge="1">
          <mxGeometry relative="1" as="geometry" />
        </mxCell>
        <mxCell id="hpJ25cg99E9ZZXq1IkF3-263" value="Age" style="ellipse;whiteSpace=wrap;html=1;dashed=1;dashPattern=12 12;" parent="1" vertex="1">
          <mxGeometry x="2160" y="340" width="120" height="80" as="geometry" />
        </mxCell>
        <mxCell id="hpJ25cg99E9ZZXq1IkF3-264" value="Role" style="rounded=0;whiteSpace=wrap;html=1;" parent="1" vertex="1">
          <mxGeometry x="1870" y="900" width="120" height="60" as="geometry" />
        </mxCell>
        <mxCell id="hpJ25cg99E9ZZXq1IkF3-265" style="rounded=0;orthogonalLoop=1;jettySize=auto;html=1;endArrow=none;endFill=0;" parent="1" source="hpJ25cg99E9ZZXq1IkF3-266" target="hpJ25cg99E9ZZXq1IkF3-264" edge="1">
          <mxGeometry relative="1" as="geometry" />
        </mxCell>
        <mxCell id="hpJ25cg99E9ZZXq1IkF3-266" value="Name" style="ellipse;whiteSpace=wrap;html=1;" parent="1" vertex="1">
          <mxGeometry x="2080" y="980" width="120" height="80" as="geometry" />
        </mxCell>
        <mxCell id="hpJ25cg99E9ZZXq1IkF3-267" style="rounded=0;orthogonalLoop=1;jettySize=auto;html=1;endArrow=none;endFill=0;" parent="1" source="hpJ25cg99E9ZZXq1IkF3-268" target="hpJ25cg99E9ZZXq1IkF3-264" edge="1">
          <mxGeometry relative="1" as="geometry" />
        </mxCell>
        <mxCell id="hpJ25cg99E9ZZXq1IkF3-268" value="&lt;u&gt;&lt;font style=&quot;font-size: 18px;&quot;&gt;&lt;b&gt;ID&lt;/b&gt;&lt;/font&gt;&lt;/u&gt;" style="ellipse;whiteSpace=wrap;html=1;" parent="1" vertex="1">
          <mxGeometry x="2080" y="780" width="120" height="80" as="geometry" />
        </mxCell>
        <mxCell id="hpJ25cg99E9ZZXq1IkF3-269" style="edgeStyle=orthogonalEdgeStyle;rounded=0;orthogonalLoop=1;jettySize=auto;html=1;entryX=0.5;entryY=0;entryDx=0;entryDy=0;endArrow=none;endFill=0;" parent="1" source="hpJ25cg99E9ZZXq1IkF3-271" target="hpJ25cg99E9ZZXq1IkF3-264" edge="1">
          <mxGeometry relative="1" as="geometry" />
        </mxCell>
        <mxCell id="hpJ25cg99E9ZZXq1IkF3-270" value="1" style="edgeLabel;html=1;align=center;verticalAlign=middle;resizable=0;points=[];" parent="hpJ25cg99E9ZZXq1IkF3-269" vertex="1" connectable="0">
          <mxGeometry x="0.7567" y="-2" relative="1" as="geometry">
            <mxPoint y="-1" as="offset" />
          </mxGeometry>
        </mxCell>
        <mxCell id="hpJ25cg99E9ZZXq1IkF3-271" value="Has" style="rhombus;whiteSpace=wrap;html=1;" parent="1" vertex="1">
          <mxGeometry x="1890" y="610" width="80" height="80" as="geometry" />
        </mxCell>
        <mxCell id="hpJ25cg99E9ZZXq1IkF3-304" value="Street" style="ellipse;whiteSpace=wrap;html=1;" parent="1" vertex="1">
          <mxGeometry x="870" y="300" width="120" height="80" as="geometry" />
        </mxCell>
        <mxCell id="hpJ25cg99E9ZZXq1IkF3-305" value="City" style="ellipse;whiteSpace=wrap;html=1;" parent="1" vertex="1">
          <mxGeometry x="950" y="180" width="120" height="80" as="geometry" />
        </mxCell>
        <mxCell id="hpJ25cg99E9ZZXq1IkF3-306" value="State" style="ellipse;whiteSpace=wrap;html=1;" parent="1" vertex="1">
          <mxGeometry x="1160" y="180" width="120" height="80" as="geometry" />
        </mxCell>
        <mxCell id="hpJ25cg99E9ZZXq1IkF3-307" value="Country" style="ellipse;whiteSpace=wrap;html=1;" parent="1" vertex="1">
          <mxGeometry x="1230" y="300" width="120" height="80" as="geometry" />
        </mxCell>
        <mxCell id="s2ZeLUQCP68ZUveNATXt-4" value="Address" style="rounded=0;whiteSpace=wrap;html=1;glass=0;" vertex="1" parent="1">
          <mxGeometry x="1040" y="310" width="120" height="60" as="geometry" />
        </mxCell>
        <mxCell id="s2ZeLUQCP68ZUveNATXt-10" value="Has" style="rhombus;whiteSpace=wrap;html=1;" vertex="1" parent="1">
          <mxGeometry x="1060" y="410" width="80" height="80" as="geometry" />
        </mxCell>
        <mxCell id="s2ZeLUQCP68ZUveNATXt-12" style="edgeStyle=orthogonalEdgeStyle;rounded=0;orthogonalLoop=1;jettySize=auto;html=1;entryX=0.75;entryY=1;entryDx=0;entryDy=0;endArrow=none;endFill=0;" edge="1" parent="1" source="s2ZeLUQCP68ZUveNATXt-11" target="s2ZeLUQCP68ZUveNATXt-4">
          <mxGeometry relative="1" as="geometry" />
        </mxCell>
        <mxCell id="s2ZeLUQCP68ZUveNATXt-11" value="Has" style="rhombus;whiteSpace=wrap;html=1;" vertex="1" parent="1">
          <mxGeometry x="1660" y="280" width="80" height="80" as="geometry" />
        </mxCell>
        <mxCell id="s2ZeLUQCP68ZUveNATXt-18" style="edgeStyle=none;rounded=0;orthogonalLoop=1;jettySize=auto;html=1;endArrow=none;endFill=0;entryX=1;entryY=0.75;entryDx=0;entryDy=0;" edge="1" source="s2ZeLUQCP68ZUveNATXt-22" parent="1" target="hpJ25cg99E9ZZXq1IkF3-2">
          <mxGeometry relative="1" as="geometry">
            <Array as="points">
              <mxPoint x="1400" y="640" />
            </Array>
            <mxPoint x="1160" y="600" as="targetPoint" />
          </mxGeometry>
        </mxCell>
        <mxCell id="s2ZeLUQCP68ZUveNATXt-19" value="1" style="edgeLabel;html=1;align=center;verticalAlign=middle;resizable=0;points=[];" vertex="1" connectable="0" parent="s2ZeLUQCP68ZUveNATXt-18">
          <mxGeometry x="0.8781" y="4" relative="1" as="geometry">
            <mxPoint as="offset" />
          </mxGeometry>
        </mxCell>
        <mxCell id="s2ZeLUQCP68ZUveNATXt-20" style="edgeStyle=none;rounded=0;orthogonalLoop=1;jettySize=auto;html=1;endArrow=none;endFill=0;entryX=1;entryY=0.25;entryDx=0;entryDy=0;" edge="1" source="s2ZeLUQCP68ZUveNATXt-22" parent="1" target="hpJ25cg99E9ZZXq1IkF3-115">
          <mxGeometry relative="1" as="geometry">
            <Array as="points">
              <mxPoint x="1400" y="1130" />
            </Array>
            <mxPoint x="1160" y="1170" as="targetPoint" />
          </mxGeometry>
        </mxCell>
        <mxCell id="s2ZeLUQCP68ZUveNATXt-21" value="1" style="edgeLabel;html=1;align=center;verticalAlign=middle;resizable=0;points=[];" vertex="1" connectable="0" parent="s2ZeLUQCP68ZUveNATXt-20">
          <mxGeometry x="0.8608" y="-1" relative="1" as="geometry">
            <mxPoint as="offset" />
          </mxGeometry>
        </mxCell>
        <mxCell id="s2ZeLUQCP68ZUveNATXt-22" value="Send" style="rhombus;whiteSpace=wrap;html=1;" vertex="1" parent="1">
          <mxGeometry x="1360" y="860" width="80" height="80" as="geometry" />
        </mxCell>
      </root>
    </mxGraphModel>
  </diagram>
</mxfile>
